<svg width="27" height="27" viewBox="0 0 27 27" fill="none" xmlns="http://www.w3.org/2000/svg">
<path id="Vector" d="M18.8352 16.7626L18.1527 17.4589C18.1527 17.4589 16.5282 19.1127 12.0957 14.597C7.66323 10.0812 9.28772 8.42742 9.28772 8.42742L9.71672 7.98783C10.7772 6.90885 10.8777 5.1751 9.95222 3.9086L8.06223 1.3218C6.91624 -0.245954 4.70375 -0.453451 3.39126 0.883752L1.03628 3.28149C0.386782 3.94548 -0.0482157 4.80314 0.00428397 5.75609C0.139283 8.19533 1.21628 13.4412 7.22224 19.5616C13.5927 26.0508 19.5702 26.309 22.0136 26.0754C22.7876 26.0016 23.4596 25.5989 24.0011 25.0456L26.1311 22.8754C27.5711 21.4106 27.1661 18.8976 25.3241 17.8724L22.4591 16.2754C21.2501 15.6022 19.7802 15.8005 18.8352 16.7626Z" fill="#C21807"/>
</svg>
