<svg width="50" height="50" viewBox="0 0 50 50" fill="none" xmlns="http://www.w3.org/2000/svg">
<g id="ri:whatsapp-fill">
<path id="Vector" d="M25.0013 4.16675C36.5076 4.16675 45.8347 13.4938 45.8347 25.0001C45.8347 36.5063 36.5076 45.8334 25.0013 45.8334C21.3196 45.8394 17.7027 44.865 14.5222 43.0105L4.17633 45.8334L6.993 35.4834C5.13694 32.3019 4.16185 28.6834 4.168 25.0001C4.168 13.4938 13.4951 4.16675 25.0013 4.16675ZM17.9013 15.2084L17.4847 15.2251C17.2149 15.2415 16.9513 15.3124 16.7097 15.4334C16.4837 15.5614 16.2774 15.7214 16.0972 15.9084C15.8472 16.1438 15.7055 16.348 15.5534 16.5459C14.7828 17.5478 14.3679 18.7778 14.3742 20.0417C14.3784 21.0626 14.6451 22.0563 15.0617 22.9855C15.9138 24.8647 17.3159 26.8542 19.1659 28.698C19.6117 29.1417 20.0492 29.5876 20.5201 30.0022C22.8188 32.026 25.5581 33.4856 28.5201 34.2647L29.7034 34.4459C30.0888 34.4667 30.4742 34.4376 30.8617 34.4188C31.4685 34.3875 32.0609 34.2232 32.5972 33.9376C32.87 33.7971 33.1362 33.6441 33.3951 33.4792C33.3951 33.4792 33.4847 33.4209 33.6555 33.2917C33.9367 33.0834 34.1097 32.9355 34.343 32.6917C34.5159 32.5126 34.6659 32.3022 34.7805 32.0626C34.943 31.723 35.1055 31.0751 35.1722 30.5355C35.2222 30.123 35.2076 29.898 35.2013 29.7584C35.193 29.5355 35.0076 29.3042 34.8055 29.2063L33.593 28.6626C33.593 28.6626 31.7805 27.873 30.6722 27.3688C30.5562 27.3182 30.4319 27.2892 30.3055 27.2834C30.163 27.2688 30.0189 27.2848 29.8831 27.3305C29.7473 27.3761 29.6228 27.4503 29.518 27.548C29.5076 27.5438 29.368 27.6626 27.8617 29.4876C27.7753 29.6038 27.6562 29.6915 27.5197 29.7398C27.3831 29.788 27.2353 29.7945 27.0951 29.7584C26.9594 29.722 26.8264 29.6761 26.6972 29.6209C26.4388 29.5126 26.3492 29.4709 26.1722 29.3959C24.9765 28.8741 23.8694 28.1691 22.8909 27.3063C22.6284 27.0772 22.3847 26.8272 22.1347 26.5855C21.3151 25.8006 20.6008 24.9126 20.0097 23.9438L19.8867 23.7459C19.7985 23.6129 19.7271 23.4695 19.6742 23.3188C19.5951 23.0126 19.8013 22.7667 19.8013 22.7667C19.8013 22.7667 20.3076 22.2126 20.543 21.9126C20.7722 21.6209 20.9659 21.3376 21.0909 21.1355C21.3367 20.7397 21.4138 20.3334 21.2847 20.0188C20.7013 18.5938 20.0972 17.1751 19.4763 15.7667C19.3534 15.4876 18.9888 15.2876 18.6576 15.248C18.5451 15.2355 18.4326 15.223 18.3201 15.2147C18.0403 15.2008 17.7599 15.2035 17.4805 15.223L17.8992 15.2063L17.9013 15.2084Z" fill="#C21807"/>
</g>
</svg>
