<svg width="50" height="50" viewBox="0 0 50 50" fill="none" xmlns="http://www.w3.org/2000/svg">
<g id="ant-design:instagram-filled">
<path id="Vector" d="M24.9995 18.4912C21.4155 18.4912 18.4907 21.416 18.4907 25C18.4907 28.584 21.4155 31.5088 24.9995 31.5088C28.5835 31.5088 31.5083 28.584 31.5083 25C31.5083 21.416 28.5835 18.4912 24.9995 18.4912ZM44.521 25C44.521 22.3047 44.5454 19.6338 44.394 16.9433C44.2427 13.8183 43.5298 11.0449 41.2446 8.75975C38.9546 6.46971 36.186 5.76171 33.061 5.61034C30.3657 5.45897 27.6948 5.48339 25.0044 5.48339C22.3091 5.48339 19.6382 5.45897 16.9477 5.61034C13.8227 5.76171 11.0493 6.4746 8.76415 8.75975C6.47411 11.0498 5.7661 13.8183 5.61473 16.9433C5.46337 19.6387 5.48778 22.3096 5.48778 25C5.48778 27.6904 5.46337 30.3662 5.61473 33.0566C5.7661 36.1816 6.47899 38.9551 8.76415 41.2402C11.0542 43.5303 13.8227 44.2383 16.9477 44.3896C19.6431 44.541 22.314 44.5166 25.0044 44.5166C27.6997 44.5166 30.3706 44.541 33.061 44.3896C36.186 44.2383 38.9595 43.5254 41.2446 41.2402C43.5347 38.9502 44.2427 36.1816 44.394 33.0566C44.5503 30.3662 44.521 27.6953 44.521 25ZM24.9995 35.0146C19.4575 35.0146 14.9849 30.542 14.9849 25C14.9849 19.458 19.4575 14.9853 24.9995 14.9853C30.5415 14.9853 35.0141 19.458 35.0141 25C35.0141 30.542 30.5415 35.0146 24.9995 35.0146ZM35.4243 16.914C34.1304 16.914 33.0854 15.8691 33.0854 14.5752C33.0854 13.2812 34.1304 12.2363 35.4243 12.2363C36.7183 12.2363 37.7632 13.2812 37.7632 14.5752C37.7636 14.8824 37.7033 15.1867 37.5859 15.4707C37.4685 15.7546 37.2963 16.0126 37.079 16.2299C36.8617 16.4471 36.6037 16.6194 36.3198 16.7368C36.0359 16.8542 35.7316 16.9144 35.4243 16.914Z" fill="#C21807"/>
</g>
</svg>
